<svg version="1" xmlns="http://www.w3.org/2000/svg" width="834.667" height="834.667" viewBox="0 0 626.000000 626.000000"><path d="M72 2.2C53.7 5.3 40.3 12 27.3 24.3 13.2 37.7 5.5 52.7 2.1 73.1 0 85.6 0 87.2 0 313s0 227.4 2.1 239.9C6.8 581.5 22 602.7 47 615.8c9.6 5 12 5.7 26.5 8.2 11.8 2 16.2 2 239.4 2 226.3 0 227.4 0 240-2.1 21.7-3.6 37.3-11.9 50.6-27.1 11.7-13.4 17.3-25.3 20.4-43.7 2.1-12.3 2.1-13.9 2.1-240 0-223.4 0-227.8-2-239.6-2.4-14.4-3-16.4-8.1-26.2C603 22.2 581.8 6.9 553.1 2.1 540.8 0 539.5 0 312.1.1 89 .2 83.2.3 72 2.2zm258.6 133.3c13.9 1.9 22.2 4.1 33.4 8.8 44.3 18.3 73.8 55.9 82.1 104.7 1.3 7.5 2.5 205.3 1.4 224l-.7 11.5-3.9 3.7c-2.1 2-5.2 3.9-6.8 4.3-7 1.5-8.3.6-35.6-26.6-14.4-14.3-26.5-25.9-27.1-25.9-.5 0-8.3 7.5-17.4 16.6-22.8 23-36.3 35.1-40 35.9-6.9 1.5-8.2.5-35.5-26.6-14.4-14.3-26.5-25.9-26.9-25.9-.5 0-12.5 11.4-26.7 25.4-29.2 28.8-30.2 29.5-38.6 26-8.4-3.5-8.7-4.4-9.6-29.7-1.2-30.7-.1-198.7 1.4-210.2 9.2-73.4 77.9-126.4 150.5-116z"/><path d="M238 298.5V329h46v-31h-14.9l-.3-14.8-.3-14.7-15.2-.3-15.3-.3v30.6zM313.7 268.6c-.4.4-.7 14.2-.7 30.6V329h45v-31h-13.9l-.3-14.8-.3-14.7-14.6-.3c-8-.1-14.8.1-15.2.4z"/></svg>